<svg width="1640" height="600" viewBox="0 0 1640 600" fill="none" xmlns="http://www.w3.org/2000/svg">
<g clip-path="url(#clip0_214_2)">
<path d="M1512.5 208.5C1540.17 208.5 1562.67 216.667 1580 233C1597.33 249 1606 273.5 1606 306.5V441C1606 447 1604 452 1600 456C1596.33 460 1591.5 462 1585.5 462C1579.5 462 1574.67 460 1571 456C1567.33 452 1565.5 447 1565.5 441V306.5C1565.5 285.167 1559.67 269.667 1548 260C1536.67 250 1520.67 245 1500 245C1476 245 1457.67 250.833 1445 262.5C1432.67 273.833 1426.5 287.333 1426.5 303V441C1426.5 447 1424.5 452 1420.5 456C1416.83 460 1412 462 1406 462C1400 462 1395.17 460 1391.5 456C1387.83 452 1386 447 1386 441V233C1386 227 1387.83 222 1391.5 218C1395.17 214 1400 212 1406 212C1412 212 1416.83 214 1420.5 218C1424.5 222 1426.5 227 1426.5 233V246.5H1429C1437 235.833 1448 226.833 1462 219.5C1476.33 212.167 1493.17 208.5 1512.5 208.5Z" fill="#E9B0FA"/>
<g clip-path="url(#clip1_214_2)">
<path d="M1326.06 199.24C1325.71 199.24 1325.38 199.05 1325.2 198.74L1316.1 182.987C1315.59 182.101 1316.58 181.109 1317.47 181.621L1344.75 197.374C1345.64 197.886 1345.28 199.24 1344.25 199.24L1326.06 199.24Z" fill="#C882FF"/>
<path d="M1326.06 197.25C1325.71 197.25 1325.38 197.441 1325.2 197.75L1316.1 213.504C1315.59 214.39 1316.58 215.381 1317.47 214.87L1344.75 199.116C1345.64 198.604 1345.28 197.25 1344.25 197.25L1326.06 197.25Z" fill="#C882FF"/>
<path d="M1147 433.659C1172.94 447.827 1205.13 456.993 1234.86 453.937C1248.51 452.533 1263.6 447.361 1272.48 436.318C1281.41 425.201 1283.28 409.742 1283.9 396C1284.87 374.834 1283.08 353.728 1279.54 332.865C1274.93 305.754 1265.73 278.796 1265.33 251.119C1265.09 234.031 1268.66 218.044 1283.11 207.627C1297.07 197.561 1313.07 198.231 1329.5 198" stroke="#C882FF" stroke-width="16" stroke-linecap="round"/>
<path d="M1177.91 156.487C1178.83 151.567 1174.07 147.505 1169.35 149.175L1108.94 170.568C1104.23 172.238 1103.09 178.388 1106.89 181.637L1155.62 223.258C1159.43 226.508 1165.32 224.42 1166.23 219.5L1177.91 156.487Z" fill="#C882FF"/>
<path d="M865.072 155.542C864.16 150.622 868.916 146.56 873.633 148.231L934.043 169.623C938.76 171.293 939.899 177.443 936.095 180.693L887.363 222.313C883.558 225.563 877.663 223.475 876.751 218.555L865.072 155.542Z" fill="#C882FF"/>
<path d="M1195 313.945C1195 410.595 1116.65 488.945 1020 488.945C923.35 488.945 845 410.595 845 313.945C845 217.295 923.35 138.945 1020 138.945C1116.65 138.945 1195 217.295 1195 313.945ZM871.25 313.945C871.25 396.097 937.848 462.695 1020 462.695C1102.15 462.695 1168.75 396.097 1168.75 313.945C1168.75 231.792 1102.15 165.195 1020 165.195C937.848 165.195 871.25 231.792 871.25 313.945Z" fill="#C882FF"/>
</g>
<path d="M262 428.5C265 432.5 266.5 436.833 266.5 441.5C266.5 447.167 264.5 452 260.5 456C256.5 460 251.667 462 246 462C243 462 240 461.333 237 460C234 458.333 231.5 456.167 229.5 453.5L146 329L62.5 453.5C60.5 456.167 57.8333 458.333 54.5 460C51.5 461.333 48.5 462 45.5 462C39.8333 462 35 460 31 456C27 452 25 447.167 25 441.5C25 437.167 26.5 433 29.5 429L123 295L40 167C38 163.333 37 160 37 157C37 151.333 39 146.5 43 142.5C47 138.167 51.8333 136 57.5 136C65.1667 136 70.5 138.833 73.5 144.5L146 261L217.5 145C221.5 139 227.167 136 234.5 136C240.167 136 244.833 138 248.5 142C252.5 146 254.5 150.833 254.5 156.5C254.5 160.167 253.5 163.667 251.5 167L168.5 295L262 428.5ZM496.367 313.5C496.367 292.833 489.201 276.167 474.867 263.5C460.867 250.5 443.201 244 421.867 244C400.867 244 383.034 250.333 368.367 263C354.034 275.333 344.867 292.167 340.867 313.5H496.367ZM298.367 337C298.367 312.333 303.701 290.333 314.367 271C325.034 251.333 339.701 236 358.367 225C377.367 214 398.534 208.5 421.867 208.5C443.534 208.5 463.034 213 480.367 222C497.701 231 511.201 243.167 520.867 258.5C530.867 273.5 535.867 289.833 535.867 307.5C535.867 323.5 532.201 334.167 524.867 339.5C517.534 344.833 509.701 347.5 501.367 347.5H339.367C341.701 372.167 351.034 391.833 367.367 406.5C383.701 421.167 404.201 428.5 428.867 428.5C450.534 428.5 468.867 422.5 483.867 410.5C489.867 406.167 495.367 404 500.367 404C506.367 404 510.867 406 513.867 410C517.201 413.667 518.867 418.167 518.867 423.5C518.867 430.5 514.867 436.5 506.867 441.5C496.867 448.833 485.034 454.667 471.367 459C457.701 463.333 443.201 465.5 427.867 465.5C401.867 465.5 379.034 460 359.367 449C339.701 437.667 324.534 422.333 313.867 403C303.534 383.667 298.367 361.667 298.367 337Z" fill="#C882FF"/>
<path d="M713.699 208.5C741.366 208.5 763.866 216.667 781.199 233C798.533 249 807.199 273.5 807.199 306.5V441C807.199 447 805.199 452 801.199 456C797.533 460 792.699 462 786.699 462C780.699 462 775.866 460 772.199 456C768.533 452 766.699 447 766.699 441V306.5C766.699 285.167 760.866 269.667 749.199 260C737.866 250 721.866 245 701.199 245C677.199 245 658.866 250.833 646.199 262.5C633.866 273.833 627.699 287.333 627.699 303V441C627.699 447 625.699 452 621.699 456C618.033 460 613.199 462 607.199 462C601.199 462 596.366 460 592.699 456C589.033 452 587.199 447 587.199 441V233C587.199 227 589.033 222 592.699 218C596.366 214 601.199 212 607.199 212C613.199 212 618.033 214 621.699 218C625.699 222 627.699 227 627.699 233V246.5H630.199C638.199 235.833 649.199 226.833 663.199 219.5C677.533 212.167 694.366 208.5 713.699 208.5Z" fill="#E9B0FA"/>
</g>
<defs>
<clipPath id="clip0_214_2">
<rect width="1640" height="600" fill="white"/>
</clipPath>
<clipPath id="clip1_214_2">
<rect width="512" height="512" fill="white" transform="translate(841 44)"/>
</clipPath>
</defs>
</svg>
